<svg width="153" height="48" viewBox="0 0 153 48" fill="none" xmlns="http://www.w3.org/2000/svg">
<path d="M78.7632 14.708L70.079 25.82L61.3948 14.708H60.0252V35.6248H64.2273V24.6683L69.3942 31.1426H70.7637L75.9307 24.6683V35.6248H80.1327V14.708H78.7632Z" fill="white"/>
<path d="M98.5896 29.3373C98.7763 28.5591 98.8697 27.781 98.8697 27.0339C98.8697 23.0187 95.8816 19.8749 91.6173 19.8749C87.1663 19.7815 83.4622 23.4856 83.5556 27.9366C83.4622 32.3876 87.2285 36.0917 91.9908 35.9983C94.263 35.9983 96.3174 35.2201 98.1538 33.6949L96.4107 30.8313C95.0723 31.8585 93.6405 32.3876 92.1153 32.3876C89.8742 32.3876 88.2868 31.2982 87.7888 29.3373H98.5896ZM87.7888 26.3803C88.2557 24.4816 89.6875 23.2677 91.4617 23.2677C93.2981 23.2677 94.761 24.4816 94.7922 26.3803H87.7888Z" fill="white"/>
<path d="M113.354 12.2801V21.7114C112.233 20.4974 110.708 19.8749 108.747 19.8749C104.452 19.8749 101.277 23.2988 101.277 27.9366C101.277 32.5744 104.452 35.9983 108.747 35.9983C110.864 35.9983 112.669 35.189 113.696 33.7261V35.6248H117.556V12.2801H113.354ZM113.416 27.9366C113.416 30.7068 111.642 32.1698 109.525 32.1698C107.253 32.1698 105.541 30.4889 105.541 27.9055C105.541 25.3843 107.284 23.6723 109.525 23.6723C111.642 23.6723 113.416 25.1975 113.416 27.9366Z" fill="white"/>
<path d="M121.724 35.6248H125.926V20.2173H121.724V35.6248ZM121.132 14.6146C121.132 16.0775 122.315 17.1981 123.809 17.1981C125.303 17.1981 126.517 16.0775 126.517 14.6146C126.517 13.1205 125.303 12 123.809 12C122.315 12 121.132 13.1205 121.132 14.6146Z" fill="white"/>
<path d="M129.211 27.9055C129.149 32.3565 132.947 36.0917 137.46 35.9983C140.448 35.9983 142.814 34.5353 144.152 32.1698L141.226 29.9287C140.23 31.3293 139.109 32.1386 137.522 32.1386C135.156 32.1386 133.476 30.3644 133.476 27.9055C133.476 25.5088 135.156 23.7034 137.522 23.7034C139.141 23.7034 140.261 24.5438 141.226 25.9445L144.152 23.6723C142.814 21.3067 140.479 19.8749 137.46 19.8749C132.884 19.8749 129.211 23.3922 129.211 27.9055Z" fill="white"/>
<path d="M147.257 35.6248H151.459V20.2173H147.257V35.6248ZM146.666 14.6146C146.666 16.0775 147.848 17.1981 149.342 17.1981C150.837 17.1981 152.05 16.0775 152.05 14.6146C152.05 13.1205 150.837 12 149.342 12C147.848 12 146.666 13.1205 146.666 14.6146Z" fill="white"/>
<path fill-rule="evenodd" clip-rule="evenodd" d="M24.0252 48C37.2801 48 48.0252 37.2548 48.0252 24C48.0252 10.7452 37.2801 0 24.0252 0C10.7704 0 0.0252228 10.7452 0.0252228 24C0.0252228 37.2548 10.7704 48 24.0252 48ZM26.524 20.9491V13.2941C26.524 12.1896 25.6285 11.2941 24.524 11.2941H23.0674C21.9629 11.2941 21.0674 12.1895 21.0674 13.2941V19.3161C21.0674 19.8071 21.2481 20.2809 21.5749 20.6474L23.0314 22.2803C24.2544 23.6515 26.524 22.7864 26.524 20.9491ZM17.6307 19.7689L17.4992 34.7235C17.4895 35.8211 16.597 36.7059 15.4992 36.7059H14.0252C12.9207 36.7059 12.0252 35.8105 12.0252 34.7059V18.0013C12.0252 16.1776 14.2662 15.3054 15.499 16.6492L17.1045 18.3993C17.4471 18.7727 17.6352 19.2622 17.6307 19.7689ZM34.0252 36.7059H32.5687C31.4641 36.7059 30.5687 35.8105 30.5687 34.7059V19.6007C30.5687 19.1008 30.7559 18.619 31.0935 18.2503L32.55 16.6592C33.782 15.3132 36.0252 16.1849 36.0252 18.0096V34.7059C36.0252 35.8105 35.1298 36.7059 34.0252 36.7059ZM26.8358 34.7059V31.3362C26.8358 30.8539 26.6614 30.3878 26.3449 30.0238L24.8884 28.3489C23.6746 26.9532 21.3792 27.8116 21.3792 29.6614V34.7059C21.3792 35.8104 22.2747 36.7059 23.3792 36.7059H24.8358C25.9403 36.7059 26.8358 35.8105 26.8358 34.7059Z" fill="white"/>
</svg>
