<svg width="49" height="48" viewBox="0 0 49 48" fill="none" xmlns="http://www.w3.org/2000/svg">
<g clip-path="url(#clip0_2_251)">
<path fill-rule="evenodd" clip-rule="evenodd" d="M24.0504 48C37.3053 48 48.0504 37.2548 48.0504 24C48.0504 10.7452 37.3053 0 24.0504 0C10.7956 0 0.0504456 10.7452 0.0504456 24C0.0504456 37.2548 10.7956 48 24.0504 48ZM26.5492 20.9491V13.2941C26.5492 12.1896 25.6538 11.2941 24.5492 11.2941H23.0927C21.9881 11.2941 21.0927 12.1895 21.0927 13.2941V19.3161C21.0927 19.8071 21.2733 20.2809 21.6001 20.6474L23.0566 22.2803C24.2796 23.6515 26.5492 22.7864 26.5492 20.9491ZM17.6559 19.7689L17.5244 34.7235C17.5147 35.8211 16.6222 36.7059 15.5245 36.7059H14.0504C12.9459 36.7059 12.0504 35.8105 12.0504 34.7059V18.0013C12.0504 16.1776 14.2914 15.3054 15.5242 16.6492L17.1298 18.3993C17.4723 18.7727 17.6604 19.2622 17.6559 19.7689ZM34.0504 36.7059H32.5939C31.4894 36.7059 30.5939 35.8105 30.5939 34.7059V19.6007C30.5939 19.1008 30.7811 18.619 31.1187 18.2503L32.5752 16.6592C33.8073 15.3132 36.0504 16.1849 36.0504 18.0096V34.7059C36.0504 35.8105 35.155 36.7059 34.0504 36.7059ZM26.861 34.7059V31.3362C26.861 30.8539 26.6867 30.3878 26.3701 30.0238L24.9136 28.3489C23.6998 26.9532 21.4045 27.8116 21.4045 29.6614V34.7059C21.4045 35.8104 22.2999 36.7059 23.4045 36.7059H24.861C25.9656 36.7059 26.861 35.8105 26.861 34.7059Z" fill="white"/>
</g>
<defs>
<clipPath id="clip0_2_251">
<rect width="48" height="48" fill="white" transform="translate(0.0504456)"/>
</clipPath>
</defs>
</svg>
